<svg xmlns="http://www.w3.org/2000/svg" viewBox="0 0 165.8 154.7">
<!-- SVG created with Arrow, by QuiverAI (https://quiver.ai) -->
  <style type="text/css">.cls-0 {fill:#1E2329;}
.cls-1 {fill:#F7EDDC;}
.cls-2 {fill:none;stroke:#F1A04C;stroke-width:0.5282;stroke-linecap:round;stroke-miterlimit:10;}
.cls-3 {fill:url(#SVGID_1_);}
.cls-4 {fill-rule:evenodd;clip-rule:evenodd;fill:#F1A04B;}
.cls-5 {fill:none;stroke:#F1A04B;stroke-width:0.2135;stroke-miterlimit:10;}
.cls-6 {fill:#F1A04B;}
.cls-7 {fill:none;stroke:#F1A04B;stroke-width:0.251;stroke-miterlimit:10;}
.cls-8 {fill:#F1A04B;stroke:#F1A04B;stroke-width:0.251;stroke-miterlimit:10;}</style>
  <path class="cls-1" d="m12 13.2c-0.7 0-2-1.2-1.2-2.3s2.1-0.6 2.3 0.3-0.5 2-1.1 2z"/>
  <path class="cls-1" d="m23.6 13.2c-0.6 0-1.9-1.2-1.1-2.3s2.1-0.6 2.4 0.3-0.6 2-1.3 2z"/>
  <path class="cls-1" d="m35.7 13.2c-0.7 0-1.9-1.2-1.1-2.4s2.3-0.5 2.6 0.5-0.9 1.9-1.5 1.9z"/>
  <circle class="cls-1" cx="47.9" cy="11.7" r="1.3"/>
  <circle class="cls-1" cx="60.2" cy="11.7" r="1.3"/>
  <path class="cls-1" d="m83.9 13.1c-0.7-0.1-1.5-1.1-1-2s1.6-1.2 2.4-0.4c0.9 1.2-0.1 2.6-1.4 2.4z"/>
  <circle class="cls-1" cx="96.1" cy="11.7" r="1.3"/>
  <circle class="cls-1" cx="108.1" cy="11.7" r="1.3"/>
  <circle class="cls-1" cx="120.2" cy="11.7" r="1.3"/>
  <circle class="cls-1" cx="132.2" cy="11.7" r="1.3"/>
  <circle class="cls-1" cx="144.5" cy="11.7" r="1.3"/>
  <circle class="cls-1" cx="156.5" cy="11.7" r="1.3"/>
  <circle class="cls-1" cx="11.2" cy="23.7" r="1.3"/>
  <circle class="cls-1" cx="23.6" cy="23.7" r="1.3"/>
  <circle class="cls-1" cx="35.7" cy="23.7" r="1.3"/>
  <circle class="cls-1" cx="47.9" cy="23.7" r="1.3"/>
  <circle class="cls-1" cx="60.2" cy="23.7" r="1.3"/>
  <circle class="cls-1" cx="72.2" cy="23.7" r="1.3"/>
  <circle class="cls-1" cx="83.9" cy="23.7" r="1.3"/>
  <circle class="cls-1" cx="96.1" cy="23.7" r="1.3"/>
  <circle class="cls-1" cx="108.1" cy="23.7" r="1.3"/>
  <circle class="cls-1" cx="120.2" cy="23.7" r="1.3"/>
  <circle class="cls-1" cx="132.2" cy="23.7" r="1.3"/>
  <circle class="cls-1" cx="156.5" cy="23.7" r="1.3"/>
  <ellipse class="cls-1" cx="11.3" cy="35.6" rx="1.3" ry="1.4"/>
  <circle class="cls-1" cx="11.3" cy="46.7" r="1.3"/>
  <circle class="cls-1" cx="23.6" cy="46.7" r="1.3"/>
  <circle class="cls-1" cx="35.7" cy="46.7" r="1.3"/>
  <circle class="cls-1" cx="47.9" cy="46.8" r="1.3"/>
  <circle class="cls-1" cx="60.2" cy="46.8" r="1.3"/>
  <circle class="cls-1" cx="72.2" cy="35.6" r="1.3"/>
  <circle class="cls-1" cx="83.9" cy="35.6" r="1.3"/>
  <circle class="cls-1" cx="96.1" cy="35.6" r="1.3"/>
  <circle class="cls-1" cx="108.1" cy="35.6" r="1.3"/>
  <circle class="cls-1" cx="120.2" cy="35.6" r="1.3"/>
  <circle class="cls-1" cx="132.2" cy="35.6" r="1.3"/>
  <circle class="cls-1" cx="144.5" cy="35.6" r="1.3"/>
  <circle class="cls-1" cx="156.5" cy="35.6" r="1.3"/>
  <circle class="cls-1" cx="83.9" cy="46.7" r="1.3"/>
  <circle class="cls-1" cx="96.1" cy="46.7" r="1.3"/>
  <circle class="cls-1" cx="156.5" cy="46.7" r="1.3"/>
  <circle class="cls-1" cx="11.3" cy="59.5" r="1.3"/>
  <circle class="cls-1" cx="23.6" cy="59.5" r="1.3"/>
  <circle class="cls-1" cx="47.9" cy="59.5" r="1.3"/>
  <circle class="cls-1" cx="60.2" cy="59.5" r="1.3"/>
  <circle class="cls-1" cx="72.2" cy="59.5" r="1.3"/>
  <circle class="cls-1" cx="83.9" cy="59.5" r="1.3"/>
  <circle class="cls-1" cx="108.1" cy="59.5" r="1.3"/>
  <circle class="cls-1" cx="120.2" cy="59.5" r="1.3"/>
  <circle class="cls-1" cx="132.2" cy="59.5" r="1.3"/>
  <circle class="cls-1" cx="144.5" cy="59.5" r="1.3"/>
  <circle class="cls-1" cx="156.5" cy="59.5" r="1.3"/>
  <circle class="cls-1" cx="11.3" cy="71.5" r="1.3"/>
  <circle class="cls-1" cx="23.6" cy="71.5" r="1.3"/>
  <circle class="cls-1" cx="35.7" cy="71.5" r="1.3"/>
  <circle class="cls-1" cx="47.9" cy="71.5" r="1.3"/>
  <circle class="cls-1" cx="60.2" cy="71.5" r="1.3"/>
  <circle class="cls-1" cx="83.9" cy="71.5" r="1.3"/>
  <circle class="cls-1" cx="96.1" cy="71.5" r="1.3"/>
  <circle class="cls-1" cx="108.1" cy="71.5" r="1.3"/>
  <circle class="cls-1" cx="120.2" cy="71.5" r="1.3"/>
  <circle class="cls-1" cx="132.2" cy="71.5" r="1.3"/>
  <circle class="cls-1" cx="144.5" cy="71.5" r="1.3"/>
  <circle class="cls-1" cx="156.5" cy="71.5" r="1.3"/>
  <circle class="cls-1" cx="23.6" cy="83.4" r="1.3"/>
  <circle class="cls-1" cx="35.7" cy="83.4" r="1.3"/>
  <circle class="cls-1" cx="47.9" cy="83.4" r="1.3"/>
  <circle class="cls-1" cx="60.2" cy="83.4" r="1.3"/>
  <circle class="cls-1" cx="72.2" cy="83.4" r="1.3"/>
  <circle class="cls-1" cx="96.1" cy="83.4" r="1.3"/>
  <circle class="cls-1" cx="108.1" cy="83.4" r="1.3"/>
  <circle class="cls-1" cx="120.2" cy="83.4" r="1.3"/>
  <circle class="cls-1" cx="132.2" cy="83.4" r="1.3"/>
  <circle class="cls-1" cx="144.5" cy="83.4" r="1.3"/>
  <circle class="cls-1" cx="156.5" cy="83.4" r="1.3"/>
  <circle class="cls-1" cx="11.3" cy="95" r="1.3"/>
  <circle class="cls-1" cx="23.6" cy="95" r="1.3"/>
  <circle class="cls-1" cx="35.7" cy="95" r="1.3"/>
  <circle class="cls-1" cx="47.9" cy="95.1" r="1.3"/>
  <circle class="cls-1" cx="60.2" cy="95.1" r="1.3"/>
  <circle class="cls-1" cx="72.2" cy="95.1" r="1.3"/>
  <circle class="cls-1" cx="83.9" cy="95" r="1.3"/>
  <circle class="cls-1" cx="96.1" cy="95" r="1.3"/>
  <circle class="cls-1" cx="108.1" cy="95" r="1.3"/>
  <circle class="cls-1" cx="132.2" cy="95.1" r="1.3"/>
  <circle class="cls-1" cx="144.5" cy="95.1" r="1.3"/>
  <circle class="cls-1" cx="156.5" cy="95.1" r="1.3"/>
  <circle class="cls-1" cx="11.3" cy="106.9" r="1.3"/>
  <circle class="cls-1" cx="23.6" cy="106.9" r="1.3"/>
  <circle class="cls-1" cx="35.7" cy="106.9" r="1.3"/>
  <circle class="cls-1" cx="47.9" cy="106.9" r="1.3"/>
  <circle class="cls-1" cx="60.2" cy="106.9" r="1.3"/>
  <circle class="cls-1" cx="83.9" cy="106.9" r="1.3"/>
  <circle class="cls-1" cx="96.1" cy="106.9" r="1.3"/>
  <circle class="cls-1" cx="120.2" cy="106.9" r="1.3"/>
  <circle class="cls-1" cx="132.2" cy="106.9" r="1.3"/>
  <circle class="cls-1" cx="156.5" cy="106.9" r="1.3"/>
  <circle class="cls-1" cx="11.3" cy="119.5" r="1.3"/>
  <circle class="cls-1" cx="23.6" cy="119.5" r="1.3"/>
  <circle class="cls-1" cx="72.2" cy="119.5" r="1.3"/>
  <circle class="cls-1" cx="83.9" cy="119.5" r="1.3"/>
  <circle class="cls-1" cx="96.1" cy="119.5" r="1.3"/>
  <circle class="cls-1" cx="108.1" cy="119.5" r="1.3"/>
  <circle class="cls-1" cx="120.2" cy="119.5" r="1.3"/>
  <circle class="cls-1" cx="144.5" cy="119.5" r="1.3"/>
  <circle class="cls-1" cx="156.5" cy="119.5" r="1.3"/>
  <circle class="cls-1" cx="11.3" cy="131.1" r="1.3"/>
  <circle class="cls-1" cx="35.7" cy="131.1" r="1.3"/>
  <circle class="cls-1" cx="47.9" cy="131.1" r="1.3"/>
  <circle class="cls-1" cx="60.2" cy="131.1" r="1.3"/>
  <circle class="cls-1" cx="72.2" cy="131.1" r="1.3"/>
  <circle class="cls-1" cx="83.9" cy="131.1" r="1.3"/>
  <circle class="cls-1" cx="96.1" cy="131.1" r="1.3"/>
  <circle class="cls-1" cx="108.1" cy="131.1" r="1.3"/>
  <circle class="cls-1" cx="120.2" cy="131.1" r="1.3"/>
  <circle class="cls-1" cx="132.2" cy="131.1" r="1.3"/>
  <circle class="cls-1" cx="144.5" cy="131.1" r="1.3"/>
  <circle class="cls-1" cx="156.5" cy="131.1" r="1.3"/>
  <circle class="cls-1" cx="11.3" cy="143.2" r="1.3"/>
  <circle class="cls-1" cx="23.6" cy="143.2" r="1.3"/>
  <circle class="cls-1" cx="35.7" cy="143.2" r="1.3"/>
  <circle class="cls-1" cx="47.9" cy="143.2" r="1.3"/>
  <circle class="cls-1" cx="60.2" cy="143.2" r="1.3"/>
  <circle class="cls-1" cx="72.2" cy="143.2" r="1.3"/>
  <circle class="cls-1" cx="83.9" cy="143.2" r="1.3"/>
  <circle class="cls-1" cx="108.1" cy="143.2" r="1.3"/>
  <circle class="cls-1" cx="120.2" cy="143.2" r="1.3"/>
  <circle class="cls-1" cx="132.2" cy="143.2" r="1.3"/>
  <circle class="cls-1" cx="156.5" cy="143.2" r="1.3"/>
  <circle class="cls-1" cx="60.2" cy="35.6" r="1.3"/>
  <path class="cls-2" d="m36.3 35.5h11.8c25.7 0.6 33 26.9 33.8 42.9"/>
  <path class="cls-2" d="m85.3 78.4c2-10.8 14.8-28.3 35.8-30.9 4.7-0.9 12.8-1 22.9-0.8"/>
  <path class="cls-2" d="m87 87.2c5.8 11.1 27.6 27.7 45.3 32.2"/>
  <path class="cls-2" d="m80.9 87.5c-2 11.2-9.7 32.2-34 32.1h-11.4"/>
  <radialGradient id="SVGID_1_" cx="84" cy="83.05" r="18.22" gradientUnits="userSpaceOnUse">
    <stop stop-color="#F1A04C" offset="0"/>
    <stop stop-color="#F1A04C" stop-opacity="0" offset="1"/>
  </radialGradient>
  <circle class="cls-3" cx="83.9" cy="83" r="18.2"/>
  <circle class="cls-6" cx="83.9" cy="83" r="5.7"/>
  <circle class="cls-6" cx="23.6" cy="35.5" r="1.3"/>
  <circle class="cls-6" cx="72.2" cy="71.5" r="1.3"/>
  <circle class="cls-6" cx="35.7" cy="59.5" r="1.3"/>
  <circle class="cls-6" cx="35.7" cy="119.5" r="1.3"/>
  <circle class="cls-6" cx="60.1" cy="119.5" r="1.3"/>
  <circle class="cls-6" cx="132.2" cy="119.5" r="1.3"/>
  <circle class="cls-6" cx="108.1" cy="106.9" r="1.3"/>
  <circle class="cls-6" cx="72.2" cy="46.7" r="1.3"/>
  <circle class="cls-1" cx="35.7" cy="35.5" r="1.3"/>
  <circle class="cls-1" cx="47.9" cy="35.5" r="1.3"/>
  <circle class="cls-1" cx="72.2" cy="106.9" r="1.3"/>
  <circle class="cls-1" cx="47.9" cy="119.5" r="1.3"/>
  <circle class="cls-1" cx="96.1" cy="59.5" r="1.3"/>
  <circle class="cls-1" cx="120.2" cy="46.8" r="1.3"/>
  <circle class="cls-1" cx="132.2" cy="46.7" r="1.3"/>
  <circle class="cls-6" cx="144.5" cy="46.7" r="1.3"/>
  <circle class="cls-6" cx="108.1" cy="46.7" r="1.3"/>
  <circle class="cls-6" cx="23.7" cy="131.1" r="1.3"/>
  <circle class="cls-7" cx="11.2" cy="83.4" r="3.3"/>
  <circle class="cls-7" cx="11.2" cy="83.4" r="2.4"/>
  <circle class="cls-6" cx="11.2" cy="83.3" r="1.2"/>
  <circle class="cls-7" cx="72.2" cy="11.6" r="3.3"/>
  <circle class="cls-7" cx="72.2" cy="11.6" r="2.4"/>
  <circle class="cls-6" cx="72.1" cy="11.6" r="1.2"/>
  <circle class="cls-7" cx="144.5" cy="106.8" r="3.3"/>
  <circle class="cls-7" cx="144.5" cy="106.8" r="2.4"/>
  <circle class="cls-6" cx="144.5" cy="106.8" r="1.2"/>
  <circle class="cls-7" cx="144.4" cy="143.2" r="3.3"/>
  <circle class="cls-7" cx="144.4" cy="143.2" r="2.4"/>
  <circle class="cls-6" cx="144.4" cy="143.2" r="1.2"/>
  <circle class="cls-7" cx="96.1" cy="143.2" r="3.3"/>
  <circle class="cls-7" cx="96.1" cy="143.1" r="2.4"/>
  <circle class="cls-6" cx="96.1" cy="143.1" r="1.2"/>
  <circle class="cls-7" cx="144.5" cy="23.7" r="3.3"/>
  <circle class="cls-7" cx="144.5" cy="23.7" r="2.4"/>
  <circle class="cls-6" cx="144.5" cy="23.7" r="1.2"/>
  <circle class="cls-7" cx="23.6" cy="131" r="3.3"/>
  <circle class="cls-7" cx="23.6" cy="131" r="2.4"/>
  <circle class="cls-6" cx="23.6" cy="23.3" r="0"/>
  <circle class="cls-7" cx="35.7" cy="59.5" r="3.3"/>
  <circle class="cls-7" cx="35.7" cy="59.5" r="2.4"/>
  <path class="cls-8" d="m23.6 29.7c-0.7 0-1.6 0.9-1 1.9l1 1.7 1.1-1.7c0.4-0.9 0-1.9-1.1-1.9zm0 2c-0.6 0-1-0.6-0.7-1.2s1.3-0.5 1.5 0-0.2 1.2-0.8 1.2z"/>
  <path class="cls-8" d="m35.7 53.5c-0.7 0-1.6 0.9-1 1.9l1 1.8 1-1.7c0.4-0.9 0.1-1.9-1-2zm0 2.1c-0.6 0-0.9-0.7-0.7-1.2s1.2-0.6 1.4 0-0.1 1.2-0.7 1.2z"/>
  <path class="cls-8" d="m72.1 65.7c-0.7 0-1.6 0.9-1 1.9l1 1.7 1.1-1.7c0.4-0.9 0-1.9-1.1-1.9zm0 2c-0.6 0-0.9-0.6-0.7-1.2s1.3-0.5 1.5 0-0.1 1.2-0.8 1.2z"/>
  <path class="cls-8" d="m108.1 41.2c-0.7 0-1.6 0.8-1 1.9l1 1.7 1-1.7c0.4-1 0.1-1.9-1-1.9zm0 2c-0.6 0-1-0.6-0.7-1.2s1.3-0.5 1.5 0-0.2 1.2-0.8 1.2z"/>
  <path class="cls-8" d="m120.1 89.4c-0.7 0.5-1.4 1.1 0.1 3.5l1.1-1.7c0.6-1.1-0.2-2.3-1.2-1.8zm0 1.7c-0.6-0.3-0.7-1.1-0.1-1.4s1.2 0.2 1 0.8-0.6 0.8-0.9 0.6z"/>
  <circle class="cls-6" cx="120.1" cy="95.1" r="1.3"/>
  <path class="cls-8" d="m132 113.8c-0.7 0-1.6 0.9-1 1.9l1.1 1.8 1-1.8c0.4-0.9 0-1.8-1.1-1.9zm0.1 2.1c-0.6 0-0.9-0.7-0.7-1.2s1.2-0.6 1.4 0-0.1 1.2-0.7 1.2z"/>
  <radialGradient id="SVGID_00000029756324102326905590000003945512639298186164_" cx="107.9" cy="46.6" r="3.191" gradientTransform="matrix(1 0 0 .9494 0 2.5)" gradientUnits="userSpaceOnUse">
    <stop stop-color="#F1A04B" offset=".1499"/>
    <stop stop-color="#F1A04B" stop-opacity="0" offset="1"/>
  </radialGradient>
  <circle cx="107.9" cy="46.6" r="3.2" fill="url(#SVGID_00000029756324102326905590000003945512639298186164_)" opacity=".24"/>
  <radialGradient id="SVGID_00000121965654387078506430000011094415692554422688_" cx="144.4" cy="46.7" r="3.191" gradientTransform="matrix(1 0 0 .9494 0 2.5)" gradientUnits="userSpaceOnUse">
    <stop stop-color="#F1A04B" offset=".1499"/>
    <stop stop-color="#F1A04B" stop-opacity="0" offset="1"/>
  </radialGradient>
  <circle cx="144.4" cy="46.7" r="3.2" fill="url(#SVGID_00000121965654387078506430000011094415692554422688_)" opacity=".24"/>
  <radialGradient id="SVGID_00000029017849341408512050000016663496010933688506_" cx="72.1" cy="46.6" r="3.191" gradientTransform="matrix(1 0 0 .9494 0 2.5)" gradientUnits="userSpaceOnUse">
    <stop stop-color="#F1A04B" offset=".1499"/>
    <stop stop-color="#F1A04B" stop-opacity="0" offset="1"/>
  </radialGradient>
  <circle cx="72.1" cy="46.6" r="3.2" fill="url(#SVGID_00000029017849341408512050000016663496010933688506_)" opacity=".24"/>
  <radialGradient id="SVGID_00000021104335660732147740000016406259406207115117_" cx="72.1" cy="71.5" r="3.191" gradientTransform="matrix(1 0 0 .9494 0 3.9)" gradientUnits="userSpaceOnUse">
    <stop stop-color="#F1A04B" offset=".1499"/>
    <stop stop-color="#F1A04B" stop-opacity="0" offset="1"/>
  </radialGradient>
  <circle cx="72.1" cy="71.5" r="3.2" fill="url(#SVGID_00000021104335660732147740000016406259406207115117_)" opacity=".24"/>
  <radialGradient id="SVGID_00000121987476042278003360000014713581778836073235_" cx="23.6" cy="35.6" r="3.191" gradientTransform="matrix(1 0 0 .9494 0 1.9)" gradientUnits="userSpaceOnUse">
    <stop stop-color="#F1A04B" offset=".1499"/>
    <stop stop-color="#F1A04B" stop-opacity="0" offset="1"/>
  </radialGradient>
  <circle cx="23.6" cy="35.6" r="3.2" fill="url(#SVGID_00000121987476042278003360000014713581778836073235_)" opacity=".24"/>
  <radialGradient id="SVGID_00000029015111947553808940000006829272079122213852_" cx="35.7" cy="119.5" r="3.191" gradientTransform="matrix(1 0 0 .9494 0 6.5)" gradientUnits="userSpaceOnUse">
    <stop stop-color="#F1A04B" offset=".1499"/>
    <stop stop-color="#F1A04B" stop-opacity="0" offset="1"/>
  </radialGradient>
  <circle cx="35.7" cy="119.5" r="3.2" fill="url(#SVGID_00000029015111947553808940000006829272079122213852_)" opacity=".24"/>
  <radialGradient id="SVGID_00000114052522712294103090000015357258691383580486_" cx="60.2" cy="119.5" r="3.191" gradientTransform="matrix(1 0 0 .9494 0 6.5)" gradientUnits="userSpaceOnUse">
    <stop stop-color="#F1A04B" offset=".1499"/>
    <stop stop-color="#F1A04B" stop-opacity="0" offset="1"/>
  </radialGradient>
  <circle cx="60.2" cy="119.5" r="3.2" fill="url(#SVGID_00000114052522712294103090000015357258691383580486_)" opacity=".24"/>
  <radialGradient id="SVGID_00000001655883015814227400000017889963064915634943_" cx="132.1" cy="119.5" r="3.191" gradientTransform="matrix(1 0 0 .9494 0 6.5)" gradientUnits="userSpaceOnUse">
    <stop stop-color="#F1A04B" offset=".1499"/>
    <stop stop-color="#F1A04B" stop-opacity="0" offset="1"/>
  </radialGradient>
  <circle cx="132.1" cy="119.5" r="3.2" fill="url(#SVGID_00000001655883015814227400000017889963064915634943_)" opacity=".24"/>
  <radialGradient id="SVGID_00000034050160492428514620000011704309651647787590_" cx="120.1" cy="95.1" r="3.191" gradientTransform="matrix(1 0 0 .9494 0 5.1)" gradientUnits="userSpaceOnUse">
    <stop stop-color="#F1A04B" offset=".1499"/>
    <stop stop-color="#F1A04B" stop-opacity="0" offset="1"/>
  </radialGradient>
  <circle cx="120.1" cy="95.1" r="3.2" fill="url(#SVGID_00000034050160492428514620000011704309651647787590_)" opacity=".24"/>
</svg>